<?xml version="1.0" encoding="utf-8"?>
<!-- Generator: Adobe Illustrator 26.2.1, SVG Export Plug-In . SVG Version: 6.00 Build 0)  -->
<svg version="1.1" id="Layer_1" xmlns="http://www.w3.org/2000/svg" xmlns:xlink="http://www.w3.org/1999/xlink" x="0px" y="0px"
	 viewBox="0 0 743 196" style="enable-background:new 0 0 743 196;" xml:space="preserve">
<style type="text/css">
	.st0{enable-background:new    ;}
	.st1{fill:#FFFFFF;}
	.st2{fill:none;stroke:#FFFFFF;stroke-width:2;stroke-miterlimit:10;}
</style>
<g class="st0">
	<path class="st1" d="M50.6,41.7h26v1.5c0,6.9-2.1,14.4-6,19.8c-1.9,2.5-8.9,11.2-23.2,11.2C28.9,74.2,15,60.1,15,41.9
		S29,9.6,47.6,9.6c6,0,13,1.5,19.1,6.2c2.8,2.2,5.4,5,7.2,7.4l-5.2,4.7c-1.8-2.5-3.8-4.8-5.9-6.5c-3-2.4-7.7-5.2-15.2-5.2
		c-15.1,0-25.6,11.3-25.6,25.8c0,17,13.6,25.7,25.4,25.7c8.3,0,15.5-4.2,19.1-10.5c1.1-2,2.3-5,2.5-8.9H50.6V41.7z"/>
	<path class="st1" d="M117.5,34.2h6.7v38.9h-6.7v-5.4c-2.2,2.9-6.5,6.6-13.3,6.6c-9.8,0-18.9-6.9-18.9-20.6c0-13.4,9-20.3,18.9-20.3
		c7.5,0,11.5,4.1,13.3,6.5V34.2z M92.2,53.6c0,8.3,4.7,14.6,12.7,14.6c8.2,0,12.9-6.8,12.9-14.5c0-10-6.9-14.4-12.9-14.4
		C98.3,39.3,92.2,44.1,92.2,53.6z"/>
	<path class="st1" d="M137,34.2h6.7v4.1c2.2-3.2,5.5-5.1,9.6-5.1c7,0,9.8,5,10.6,6.3c3.7-5.9,9.1-6.3,11.7-6.3
		c11.5,0,12.6,9.6,12.6,15.2v24.6h-6.7V49.5c0-4.4-0.6-10.2-6.9-10.2c-7.8,0-8.6,7.5-8.6,12.2v21.6h-6.7V50c0-2.7,0.1-10.8-7-10.8
		c-7.7,0-8.5,8-8.5,12.6v21.2H137V34.2z"/>
	<path class="st1" d="M235.6,63.2c-1.1,2.2-2.8,4.5-4.8,6.3c-3.6,3.2-8,4.8-12.9,4.8c-9.4,0-19.2-5.9-19.2-20.3
		c0-11.6,7.1-20.6,18.8-20.6c7.6,0,12.4,3.7,14.7,7.1c2.4,3.5,3.8,9.5,3.7,14.6h-30.3c0.1,8.1,5.6,13.2,12.4,13.2
		c3.2,0,5.7-0.9,8-2.8c1.8-1.5,3.2-3.5,4-5.3L235.6,63.2z M228.9,49.4c-1.1-6.1-5.7-10.1-11.4-10.1c-5.7,0-10.4,4.3-11.4,10.1H228.9
		z"/>
	<path class="st1" d="M267.5,73.1l10.4-65.9l24,52.7l24.4-52.8l9.7,66H329l-5.9-43.5l-21.3,46.1l-21-46.1l-6.2,43.5H267.5z"/>
	<path class="st1" d="M378.6,34.2h6.7v38.9h-6.7v-5.4c-2.2,2.9-6.5,6.6-13.3,6.6c-9.8,0-18.9-6.9-18.9-20.6c0-13.4,9-20.3,18.9-20.3
		c7.5,0,11.5,4.1,13.3,6.5V34.2z M353.3,53.6c0,8.3,4.7,14.6,12.7,14.6c8.2,0,12.9-6.8,12.9-14.5c0-10-6.9-14.4-12.9-14.4
		C359.4,39.3,353.3,44.1,353.3,53.6z"/>
	<path class="st1" d="M398.1,34.2h6.7v4.2c0.7-1,3.6-5.2,8.8-5.2c2.1,0,4.3,0.7,6,1.6l-3.2,6.1c-1.5-1-2.9-1.3-3.9-1.3
		c-2.7,0-4.4,1.1-5.4,2.4c-1.1,1.5-2.2,4.1-2.2,10.5v20.5h-6.7V34.2z"/>
	<path class="st1" d="M432.6,4.8v43.8l14.2-14.4h8.8l-16.7,16.7l19.7,22.2h-8.8l-15.5-17.7l-1.7,1.7v16h-6.7V4.8H432.6z"/>
	<path class="st1" d="M498.9,63.2c-1.1,2.2-2.8,4.5-4.8,6.3c-3.6,3.2-8,4.8-12.9,4.8c-9.4,0-19.2-5.9-19.2-20.3
		c0-11.6,7.1-20.6,18.8-20.6c7.6,0,12.4,3.7,14.7,7.1c2.4,3.5,3.8,9.5,3.7,14.6h-30.3c0.1,8.1,5.6,13.2,12.4,13.2
		c3.2,0,5.7-0.9,8-2.8c1.8-1.5,3.2-3.5,4-5.3L498.9,63.2z M492.2,49.4c-1.1-6.1-5.7-10.1-11.4-10.1s-10.4,4.3-11.4,10.1H492.2z"/>
	<path class="st1" d="M516.4,40.4v32.7h-6.7V40.4h-4.1v-6.2h4.1v-14h6.7v14h6.7v6.2H516.4z"/>
	<path class="st1" d="M564.3,10.6c6.3,0,11.5,0.7,15.7,4.4c4.6,3.9,5.7,9.5,5.7,13.4c0,8.8-5.5,17.5-19.8,17.5h-6.1v27.2H553V10.6
		H564.3z M559.9,39.4h5.7c8.2,0,13.2-4.1,13.2-11.3c0-9.9-9.3-10.9-13.8-10.9h-5.2V39.4z"/>
	<path class="st1" d="M600.8,4.8v68.3H594V4.8H600.8z"/>
	<path class="st1" d="M643.3,34.2h6.7v38.9h-6.7v-5.4c-2.2,2.9-6.5,6.6-13.3,6.6c-9.8,0-18.9-6.9-18.9-20.6c0-13.4,9-20.3,18.9-20.3
		c7.5,0,11.5,4.1,13.3,6.5V34.2z M618,53.6c0,8.3,4.7,14.6,12.7,14.6c8.2,0,12.9-6.8,12.9-14.5c0-10-6.9-14.4-12.9-14.4
		C624.1,39.3,618,44.1,618,53.6z"/>
	<path class="st1" d="M693.2,45.1c-3.6-4.5-8.7-5.8-12.2-5.8c-7.2,0-13.8,5.1-13.8,14.5c0,9.5,6.7,14.4,13.7,14.4
		c4,0,9-1.8,12.6-6.1v8.1c-4.2,3.1-8.7,4-12.4,4c-12.1,0-20.8-8.6-20.8-20.3c0-11.9,8.8-20.6,20.8-20.6c6.2,0,10.2,2.4,12.1,3.7
		V45.1z"/>
	<path class="st1" d="M738.3,63.2c-1.1,2.2-2.8,4.5-4.8,6.3c-3.6,3.2-8,4.8-12.9,4.8c-9.4,0-19.2-5.9-19.2-20.3
		c0-11.6,7.1-20.6,18.8-20.6c7.6,0,12.4,3.7,14.7,7.1c2.4,3.5,3.8,9.5,3.7,14.6h-30.3c0.1,8.1,5.6,13.2,12.4,13.2
		c3.2,0,5.7-0.9,8-2.8c1.8-1.5,3.2-3.5,4-5.3L738.3,63.2z M731.6,49.4c-1.1-6.1-5.7-10.1-11.4-10.1c-5.7,0-10.4,4.3-11.4,10.1H731.6
		z"/>
</g>
<g class="st0">
	<path class="st2" d="M50.6,41.7h26v1.5c0,6.9-2.1,14.4-6,19.8c-1.9,2.5-8.9,11.2-23.2,11.2C28.9,74.2,15,60.1,15,41.9
		S29,9.6,47.6,9.6c6,0,13,1.5,19.1,6.2c2.8,2.2,5.4,5,7.2,7.4l-5.2,4.7c-1.8-2.5-3.8-4.8-5.9-6.5c-3-2.4-7.7-5.2-15.2-5.2
		c-15.1,0-25.6,11.3-25.6,25.8c0,17,13.6,25.7,25.4,25.7c8.3,0,15.5-4.2,19.1-10.5c1.1-2,2.3-5,2.5-8.9H50.6V41.7z"/>
	<path class="st2" d="M117.5,34.2h6.7v38.9h-6.7v-5.4c-2.2,2.9-6.5,6.6-13.3,6.6c-9.8,0-18.9-6.9-18.9-20.6c0-13.4,9-20.3,18.9-20.3
		c7.5,0,11.5,4.1,13.3,6.5V34.2z M92.2,53.6c0,8.3,4.7,14.6,12.7,14.6c8.2,0,12.9-6.8,12.9-14.5c0-10-6.9-14.4-12.9-14.4
		C98.3,39.3,92.2,44.1,92.2,53.6z"/>
	<path class="st2" d="M137,34.2h6.7v4.1c2.2-3.2,5.5-5.1,9.6-5.1c7,0,9.8,5,10.6,6.3c3.7-5.9,9.1-6.3,11.7-6.3
		c11.5,0,12.6,9.6,12.6,15.2v24.6h-6.7V49.5c0-4.4-0.6-10.2-6.9-10.2c-7.8,0-8.6,7.5-8.6,12.2v21.6h-6.7V50c0-2.7,0.1-10.8-7-10.8
		c-7.7,0-8.5,8-8.5,12.6v21.2H137V34.2z"/>
	<path class="st2" d="M235.6,63.2c-1.1,2.2-2.8,4.5-4.8,6.3c-3.6,3.2-8,4.8-12.9,4.8c-9.4,0-19.2-5.9-19.2-20.3
		c0-11.6,7.1-20.6,18.8-20.6c7.6,0,12.4,3.7,14.7,7.1c2.4,3.5,3.8,9.5,3.7,14.6h-30.3c0.1,8.1,5.6,13.2,12.4,13.2
		c3.2,0,5.7-0.9,8-2.8c1.8-1.5,3.2-3.5,4-5.3L235.6,63.2z M228.9,49.4c-1.1-6.1-5.7-10.1-11.4-10.1c-5.7,0-10.4,4.3-11.4,10.1H228.9
		z"/>
	<path class="st2" d="M267.5,73.1l10.4-65.9l24,52.7l24.4-52.8l9.7,66H329l-5.9-43.5l-21.3,46.1l-21-46.1l-6.2,43.5H267.5z"/>
	<path class="st2" d="M378.6,34.2h6.7v38.9h-6.7v-5.4c-2.2,2.9-6.5,6.6-13.3,6.6c-9.8,0-18.9-6.9-18.9-20.6c0-13.4,9-20.3,18.9-20.3
		c7.5,0,11.5,4.1,13.3,6.5V34.2z M353.3,53.6c0,8.3,4.7,14.6,12.7,14.6c8.2,0,12.9-6.8,12.9-14.5c0-10-6.9-14.4-12.9-14.4
		C359.4,39.3,353.3,44.1,353.3,53.6z"/>
	<path class="st2" d="M398.1,34.2h6.7v4.2c0.7-1,3.6-5.2,8.8-5.2c2.1,0,4.3,0.7,6,1.6l-3.2,6.1c-1.5-1-2.9-1.3-3.9-1.3
		c-2.7,0-4.4,1.1-5.4,2.4c-1.1,1.5-2.2,4.1-2.2,10.5v20.5h-6.7V34.2z"/>
	<path class="st2" d="M432.6,4.8v43.8l14.2-14.4h8.8l-16.7,16.7l19.7,22.2h-8.8l-15.5-17.7l-1.7,1.7v16h-6.7V4.8H432.6z"/>
	<path class="st2" d="M498.9,63.2c-1.1,2.2-2.8,4.5-4.8,6.3c-3.6,3.2-8,4.8-12.9,4.8c-9.4,0-19.2-5.9-19.2-20.3
		c0-11.6,7.1-20.6,18.8-20.6c7.6,0,12.4,3.7,14.7,7.1c2.4,3.5,3.8,9.5,3.7,14.6h-30.3c0.1,8.1,5.6,13.2,12.4,13.2
		c3.2,0,5.7-0.9,8-2.8c1.8-1.5,3.2-3.5,4-5.3L498.9,63.2z M492.2,49.4c-1.1-6.1-5.7-10.1-11.4-10.1s-10.4,4.3-11.4,10.1H492.2z"/>
	<path class="st2" d="M516.4,40.4v32.7h-6.7V40.4h-4.1v-6.2h4.1v-14h6.7v14h6.7v6.2H516.4z"/>
	<path class="st2" d="M564.3,10.6c6.3,0,11.5,0.7,15.7,4.4c4.6,3.9,5.7,9.5,5.7,13.4c0,8.8-5.5,17.5-19.8,17.5h-6.1v27.2H553V10.6
		H564.3z M559.9,39.4h5.7c8.2,0,13.2-4.1,13.2-11.3c0-9.9-9.3-10.9-13.8-10.9h-5.2V39.4z"/>
	<path class="st2" d="M600.8,4.8v68.3H594V4.8H600.8z"/>
	<path class="st2" d="M643.3,34.2h6.7v38.9h-6.7v-5.4c-2.2,2.9-6.5,6.6-13.3,6.6c-9.8,0-18.9-6.9-18.9-20.6c0-13.4,9-20.3,18.9-20.3
		c7.5,0,11.5,4.1,13.3,6.5V34.2z M618,53.6c0,8.3,4.7,14.6,12.7,14.6c8.2,0,12.9-6.8,12.9-14.5c0-10-6.9-14.4-12.9-14.4
		C624.1,39.3,618,44.1,618,53.6z"/>
	<path class="st2" d="M693.2,45.1c-3.6-4.5-8.7-5.8-12.2-5.8c-7.2,0-13.8,5.1-13.8,14.5c0,9.5,6.7,14.4,13.7,14.4
		c4,0,9-1.8,12.6-6.1v8.1c-4.2,3.1-8.7,4-12.4,4c-12.1,0-20.8-8.6-20.8-20.3c0-11.9,8.8-20.6,20.8-20.6c6.2,0,10.2,2.4,12.1,3.7
		V45.1z"/>
	<path class="st2" d="M738.3,63.2c-1.1,2.2-2.8,4.5-4.8,6.3c-3.6,3.2-8,4.8-12.9,4.8c-9.4,0-19.2-5.9-19.2-20.3
		c0-11.6,7.1-20.6,18.8-20.6c7.6,0,12.4,3.7,14.7,7.1c2.4,3.5,3.8,9.5,3.7,14.6h-30.3c0.1,8.1,5.6,13.2,12.4,13.2
		c3.2,0,5.7-0.9,8-2.8c1.8-1.5,3.2-3.5,4-5.3L738.3,63.2z M731.6,49.4c-1.1-6.1-5.7-10.1-11.4-10.1c-5.7,0-10.4,4.3-11.4,10.1H731.6
		z"/>
</g>
<g class="st0">
	<path class="st1" d="M22.3,132.3h-3.8V94.1h3.8v19.5c2.6-3.2,5.9-3.6,7.4-3.6c6.8,0,10.6,5.7,10.6,11.5c0,6-3.8,11.4-10.4,11.4
		c-3.5,0-6-1.6-7.6-3.7V132.3z M36.5,121.5c0-5.3-3.6-8.2-7.1-8.2s-7.2,2.9-7.2,8.1c0,4.5,2.8,8.1,7.3,8.1
		C33.8,129.6,36.5,125.9,36.5,121.5z"/>
	<path class="st1" d="M49.9,123.2c0,1.5,0,3.3,1,4.7c0.6,0.7,1.7,1.7,3.8,1.7c2.1,0,3.2-0.9,3.8-1.7c1-1.4,1-3.1,1-4.7v-12.7h3.8
		v13.1c0,2.7-0.3,4.7-2,6.5c-1.9,2-4.5,2.7-6.7,2.7s-4.7-0.7-6.7-2.7c-1.7-1.9-2-3.9-2-6.5v-13.1h3.8V123.2z"/>
	<path class="st1" d="M72.4,99.6c1.5,0,2.7,1.2,2.7,2.7c0,1.5-1.2,2.7-2.7,2.7c-1.5,0-2.7-1.2-2.7-2.7C69.8,100.8,71,99.6,72.4,99.6
		z M74.3,110.5v21.7h-3.8v-21.7H74.3z"/>
	<path class="st1" d="M85.2,94.1v38.2h-3.8V94.1H85.2z"/>
	<path class="st1" d="M96.2,114v18.3h-3.8V114h-2.3v-3.5h2.3v-7.9h3.8v7.9h3.8v3.5H96.2z"/>
	<path class="st1" d="M119.5,132.3h-3.8V94.1h3.8v19.5c2.6-3.2,5.9-3.6,7.4-3.6c6.8,0,10.6,5.7,10.6,11.5c0,6-3.8,11.4-10.4,11.4
		c-3.5,0-6-1.6-7.6-3.7V132.3z M133.7,121.5c0-5.3-3.6-8.2-7.1-8.2s-7.2,2.9-7.2,8.1c0,4.5,2.8,8.1,7.3,8.1
		C131,129.6,133.7,125.9,133.7,121.5z"/>
	<path class="st1" d="M150.2,130.2l-10-19.7h4.3l7.7,15.6l7.1-15.6h4.2l-16,33.8h-4.2L150.2,130.2z"/>
	<path class="st1" d="M196.3,110.5h3.8v21.2c0,2.4,0,5.7-2.1,8.5c-1.6,2.2-4.6,4-8.7,4c-3.7,0-6.3-1.5-7.8-2.9
		c-1.5-1.5-2.8-3.8-2.8-7h3.7c0,1.8,0.7,3.5,1.7,4.5c1.6,1.7,3.6,2.1,5.2,2.1c2.7,0,4.5-0.9,5.8-3c1.1-1.8,1.2-3.7,1.2-5.6v-3.1
		c-1.3,1.6-3.6,3.7-7.4,3.7c-3.2,0-5.8-1.3-7.4-2.9c-1.5-1.5-3.1-4.2-3.1-8.6c0-4.2,1.6-6.9,3.1-8.4c1.8-1.8,4.5-2.9,7.4-2.9
		c3.2,0,5.7,1.4,7.4,3.6V110.5z M184.3,115.4c-1.8,1.9-2.2,4.2-2.2,6c0,1.9,0.4,4.5,2.5,6.4c1.2,1.1,2.7,1.8,4.7,1.8
		s3.6-0.6,4.8-1.8c1.5-1.4,2.5-3.7,2.5-6.3s-0.9-4.8-2.3-6.1c-1.2-1.2-3-1.9-4.9-1.9C187,113.4,185.4,114.4,184.3,115.4z"/>
	<path class="st1" d="M223.8,110.5h3.8v21.7h-3.8v-3c-1.3,1.6-3.6,3.7-7.4,3.7c-5.5,0-10.6-3.9-10.6-11.5c0-7.5,5-11.4,10.6-11.4
		c4.2,0,6.4,2.3,7.4,3.6V110.5z M209.7,121.4c0,4.7,2.6,8.2,7.1,8.2c4.6,0,7.2-3.8,7.2-8.1c0-5.6-3.9-8.1-7.2-8.1
		C213.1,113.4,209.7,116.1,209.7,121.4z"/>
	<path class="st1" d="M234.7,110.5h3.8v2.3c1.2-1.8,3.1-2.8,5.4-2.8c3.9,0,5.5,2.8,5.9,3.5c2.1-3.3,5.1-3.5,6.5-3.5
		c6.4,0,7.1,5.4,7.1,8.5v13.8h-3.8v-13.2c0-2.5-0.3-5.7-3.9-5.7c-4.3,0-4.8,4.2-4.8,6.8v12.1h-3.8v-12.9c0-1.5,0.1-6-3.9-6
		c-4.3,0-4.8,4.5-4.8,7.1v11.8h-3.8V110.5z"/>
	<path class="st1" d="M289.9,126.7c-0.6,1.2-1.6,2.5-2.7,3.5c-2,1.8-4.5,2.7-7.2,2.7c-5.2,0-10.7-3.3-10.7-11.4
		c0-6.5,4-11.5,10.5-11.5c4.2,0,6.9,2.1,8.2,4c1.4,1.9,2.1,5.3,2,8.2h-16.9c0.1,4.5,3.1,7.4,6.9,7.4c1.8,0,3.2-0.5,4.5-1.6
		c1-0.8,1.8-1.9,2.3-3L289.9,126.7z M286.2,119c-0.6-3.4-3.2-5.7-6.4-5.7s-5.8,2.4-6.4,5.7H286.2z"/>
	<path class="st1" d="M295.8,110.5h3.8v2.4c0.4-0.6,2-2.9,4.9-2.9c1.2,0,2.4,0.4,3.4,0.9l-1.8,3.4c-0.8-0.6-1.6-0.7-2.2-0.7
		c-1.5,0-2.5,0.6-3,1.4c-0.6,0.8-1.3,2.3-1.3,5.9v11.5h-3.8V110.5z"/>
	<path class="st1" d="M319.7,115.6c-0.5-1.3-1.6-2.2-3-2.2c-1.4,0-2.6,0.8-2.6,2.5c0,1.6,1,2,3.5,3.1c3.1,1.3,4.6,2.3,5.4,3.4
		c0.9,1.2,1.2,2.3,1.2,3.5c0,4.6-3.3,7.1-7.5,7.1c-0.9,0-5.8-0.1-7.6-5.6l3.2-1.4c0.4,1.2,1.7,3.6,4.4,3.6c2.5,0,3.6-1.8,3.6-3.5
		c0-2-1.5-2.7-3.5-3.6c-2.6-1.2-4.3-2-5.3-3.2c-0.8-1-1-2.1-1-3.2c0-3.8,2.7-6.1,6.3-6.1c1.2,0,4.2,0.2,6,3.9L319.7,115.6z"/>
	<path class="st1" d="M345.3,114v18.3h-3.8V114h-2.1v-3.5h2.1V101c0-2,0.2-4.5,2.1-6.1c1-0.9,2.6-1.4,4.3-1.4c1.4,0,2.3,0.3,2.7,0.5
		v3.7c-0.8-0.3-1.7-0.5-2.5-0.5c-0.8,0-1.8,0.2-2.4,1.2c-0.5,0.8-0.5,2-0.5,3.1v9.1h5.3v3.5H345.3z"/>
	<path class="st1" d="M352.6,121.5c0-6.6,4.9-11.5,11.5-11.5s11.5,4.9,11.5,11.5s-4.9,11.4-11.5,11.4S352.6,128.1,352.6,121.5z
		 M356.5,121.5c0,5.3,3.8,8.1,7.7,8.1c3.9,0,7.7-2.8,7.7-8.1c0-5.3-3.7-8.1-7.7-8.1S356.5,116.2,356.5,121.5z"/>
	<path class="st1" d="M381.4,110.5h3.8v2.4c0.4-0.6,2-2.9,4.9-2.9c1.2,0,2.4,0.4,3.4,0.9l-1.8,3.4c-0.8-0.6-1.6-0.7-2.2-0.7
		c-1.5,0-2.5,0.6-3,1.4c-0.6,0.8-1.3,2.3-1.3,5.9v11.5h-3.8V110.5z"/>
	<path class="st1" d="M425.8,110.5h3.8v21.2c0,2.4,0,5.7-2.1,8.5c-1.6,2.2-4.6,4-8.7,4c-3.7,0-6.3-1.5-7.8-2.9
		c-1.5-1.5-2.8-3.8-2.8-7h3.7c0,1.8,0.7,3.5,1.7,4.5c1.6,1.7,3.6,2.1,5.2,2.1c2.7,0,4.5-0.9,5.8-3c1.1-1.8,1.2-3.7,1.2-5.6v-3.1
		c-1.3,1.6-3.6,3.7-7.4,3.7c-3.2,0-5.8-1.3-7.4-2.9c-1.5-1.5-3.1-4.2-3.1-8.6c0-4.2,1.6-6.9,3.1-8.4c1.8-1.8,4.5-2.9,7.4-2.9
		c3.2,0,5.7,1.4,7.4,3.6V110.5z M413.9,115.4c-1.8,1.9-2.2,4.2-2.2,6c0,1.9,0.4,4.5,2.5,6.4c1.2,1.1,2.7,1.8,4.7,1.8
		s3.6-0.6,4.8-1.8c1.5-1.4,2.5-3.7,2.5-6.3s-0.9-4.8-2.3-6.1c-1.2-1.2-3-1.9-4.9-1.9C416.5,113.4,414.9,114.4,413.9,115.4z"/>
	<path class="st1" d="M453.4,110.5h3.8v21.7h-3.8v-3c-1.3,1.6-3.6,3.7-7.4,3.7c-5.5,0-10.6-3.9-10.6-11.5c0-7.5,5-11.4,10.6-11.4
		c4.2,0,6.4,2.3,7.4,3.6V110.5z M439.2,121.4c0,4.7,2.6,8.2,7.1,8.2c4.6,0,7.2-3.8,7.2-8.1c0-5.6-3.9-8.1-7.2-8.1
		C442.6,113.4,439.2,116.1,439.2,121.4z"/>
	<path class="st1" d="M464.3,110.5h3.8v2.3c1.2-1.8,3.1-2.8,5.4-2.8c3.9,0,5.5,2.8,5.9,3.5c2.1-3.3,5.1-3.5,6.5-3.5
		c6.4,0,7.1,5.4,7.1,8.5v13.8h-3.8v-13.2c0-2.5-0.3-5.7-3.9-5.7c-4.3,0-4.8,4.2-4.8,6.8v12.1h-3.8v-12.9c0-1.5,0.1-6-3.9-6
		c-4.3,0-4.8,4.5-4.8,7.1v11.8h-3.8V110.5z"/>
	<path class="st1" d="M519.4,126.7c-0.6,1.2-1.6,2.5-2.7,3.5c-2,1.8-4.5,2.7-7.2,2.7c-5.2,0-10.7-3.3-10.7-11.4
		c0-6.5,4-11.5,10.5-11.5c4.2,0,6.9,2.1,8.2,4c1.4,1.9,2.1,5.3,2,8.2h-16.9c0.1,4.5,3.1,7.4,6.9,7.4c1.8,0,3.2-0.5,4.5-1.6
		c1-0.8,1.8-1.9,2.3-3L519.4,126.7z M515.7,119c-0.6-3.4-3.2-5.7-6.4-5.7s-5.8,2.4-6.4,5.7H515.7z"/>
	<path class="st1" d="M525.4,110.5h3.8v2.4c0.4-0.6,2-2.9,4.9-2.9c1.2,0,2.4,0.4,3.4,0.9l-1.8,3.4c-0.8-0.6-1.6-0.7-2.2-0.7
		c-1.5,0-2.5,0.6-3,1.4c-0.6,0.8-1.3,2.3-1.3,5.9v11.5h-3.8V110.5z"/>
	<path class="st1" d="M549.3,115.6c-0.5-1.3-1.6-2.2-3-2.2c-1.4,0-2.6,0.8-2.6,2.5c0,1.6,1,2,3.5,3.1c3.1,1.3,4.6,2.3,5.4,3.4
		c0.9,1.2,1.2,2.3,1.2,3.5c0,4.6-3.3,7.1-7.5,7.1c-0.9,0-5.8-0.1-7.6-5.6l3.2-1.4c0.4,1.2,1.7,3.6,4.4,3.6c2.5,0,3.6-1.8,3.6-3.5
		c0-2-1.5-2.7-3.5-3.6c-2.6-1.2-4.3-2-5.3-3.2c-0.8-1-1-2.1-1-3.2c0-3.8,2.7-6.1,6.3-6.1c1.2,0,4.2,0.2,6,3.9L549.3,115.6z"/>
</g>
<g>
	<rect x="15" y="180.9" class="st1" width="370.2" height="4"/>
</g>
</svg>
