<?xml version="1.0" encoding="utf-8"?>
<!-- Generator: Adobe Illustrator 26.2.1, SVG Export Plug-In . SVG Version: 6.00 Build 0)  -->
<svg version="1.1" id="Layer_1" xmlns="http://www.w3.org/2000/svg" xmlns:xlink="http://www.w3.org/1999/xlink" x="0px" y="0px"
	 viewBox="0 0 222 360" style="enable-background:new 0 0 222 360;" xml:space="preserve">
<style type="text/css">
	.st0{clip-path:url(#SVGID_00000031208752912165906560000004625579326751591085_);fill:#FFFFFF;}
</style>
<g>
	<g>
		<defs>
			<polygon id="SVGID_1_" points="187.39,0 8.09,208.72 80.93,208.72 23.5,360 207,154.09 125.76,154.09 			"/>
		</defs>
		<use xlink:href="#SVGID_1_"  style="overflow:visible;fill:#FFFFFF;"/>
		<clipPath id="SVGID_00000043422156681840489090000008803629485426203540_">
			<use xlink:href="#SVGID_1_"  style="overflow:visible;"/>
		</clipPath>
		
			<rect x="8.09" y="0" style="clip-path:url(#SVGID_00000043422156681840489090000008803629485426203540_);fill:#FFFFFF;" width="45.82" height="360"/>
		
			<rect x="53.91" y="0" style="clip-path:url(#SVGID_00000043422156681840489090000008803629485426203540_);fill:#FFFFFF;" width="1.16" height="360"/>
		
			<rect x="55.07" y="0" style="clip-path:url(#SVGID_00000043422156681840489090000008803629485426203540_);fill:#FFFFFF;" width="1.16" height="360"/>
		
			<rect x="56.23" y="0" style="clip-path:url(#SVGID_00000043422156681840489090000008803629485426203540_);fill:#FFFFFF;" width="1.16" height="360"/>
		
			<rect x="57.39" y="0" style="clip-path:url(#SVGID_00000043422156681840489090000008803629485426203540_);fill:#FFFFFF;" width="1.16" height="360"/>
		
			<rect x="58.55" y="0" style="clip-path:url(#SVGID_00000043422156681840489090000008803629485426203540_);fill:#FFFFFF;" width="1.16" height="360"/>
		
			<rect x="59.7" y="0" style="clip-path:url(#SVGID_00000043422156681840489090000008803629485426203540_);fill:#FFFFFF;" width="1.16" height="360"/>
		
			<rect x="60.86" y="0" style="clip-path:url(#SVGID_00000043422156681840489090000008803629485426203540_);fill:#FFFFFF;" width="1.16" height="360"/>
		
			<rect x="62.02" y="0" style="clip-path:url(#SVGID_00000043422156681840489090000008803629485426203540_);fill:#FFFFFF;" width="1.16" height="360"/>
		
			<rect x="63.18" y="0" style="clip-path:url(#SVGID_00000043422156681840489090000008803629485426203540_);fill:#FFFFFF;" width="1.16" height="360"/>
		
			<rect x="64.34" y="0" style="clip-path:url(#SVGID_00000043422156681840489090000008803629485426203540_);fill:#FFFFFF;" width="1.16" height="360"/>
		
			<rect x="65.5" y="0" style="clip-path:url(#SVGID_00000043422156681840489090000008803629485426203540_);fill:#FFFFFF;" width="1.16" height="360"/>
		
			<rect x="66.65" y="0" style="clip-path:url(#SVGID_00000043422156681840489090000008803629485426203540_);fill:#FFFFFF;" width="1.16" height="360"/>
		
			<rect x="67.81" y="0" style="clip-path:url(#SVGID_00000043422156681840489090000008803629485426203540_);fill:#FFFFFF;" width="1.16" height="360"/>
		
			<rect x="68.97" y="0" style="clip-path:url(#SVGID_00000043422156681840489090000008803629485426203540_);fill:#FFFFFF;" width="1.16" height="360"/>
		
			<rect x="70.13" y="0" style="clip-path:url(#SVGID_00000043422156681840489090000008803629485426203540_);fill:#FFFFFF;" width="1.16" height="360"/>
		
			<rect x="71.29" y="0" style="clip-path:url(#SVGID_00000043422156681840489090000008803629485426203540_);fill:#FFFFFF;" width="1.16" height="360"/>
		
			<rect x="72.44" y="0" style="clip-path:url(#SVGID_00000043422156681840489090000008803629485426203540_);fill:#FFFFFF;" width="1.16" height="360"/>
		
			<rect x="73.6" y="0" style="clip-path:url(#SVGID_00000043422156681840489090000008803629485426203540_);fill:#FFFFFF;" width="1.16" height="360"/>
		
			<rect x="74.76" y="0" style="clip-path:url(#SVGID_00000043422156681840489090000008803629485426203540_);fill:#FFFFFF;" width="1.16" height="360"/>
		
			<rect x="75.92" y="0" style="clip-path:url(#SVGID_00000043422156681840489090000008803629485426203540_);fill:#FFFFFF;" width="1.16" height="360"/>
		
			<rect x="77.08" y="0" style="clip-path:url(#SVGID_00000043422156681840489090000008803629485426203540_);fill:#FFFFFF;" width="1.16" height="360"/>
		
			<rect x="78.24" y="0" style="clip-path:url(#SVGID_00000043422156681840489090000008803629485426203540_);fill:#FFFFFF;" width="1.16" height="360"/>
		
			<rect x="79.39" y="0" style="clip-path:url(#SVGID_00000043422156681840489090000008803629485426203540_);fill:#FFFFFF;" width="1.16" height="360"/>
		
			<rect x="80.55" y="0" style="clip-path:url(#SVGID_00000043422156681840489090000008803629485426203540_);fill:#FFFFFF;" width="1.16" height="360"/>
		
			<rect x="81.71" y="0" style="clip-path:url(#SVGID_00000043422156681840489090000008803629485426203540_);fill:#FFFFFF;" width="1.16" height="360"/>
		
			<rect x="82.87" y="0" style="clip-path:url(#SVGID_00000043422156681840489090000008803629485426203540_);fill:#FFFFFF;" width="1.16" height="360"/>
		
			<rect x="84.03" y="0" style="clip-path:url(#SVGID_00000043422156681840489090000008803629485426203540_);fill:#FFFFFF;" width="1.16" height="360"/>
		
			<rect x="85.19" y="0" style="clip-path:url(#SVGID_00000043422156681840489090000008803629485426203540_);fill:#FFFFFF;" width="1.16" height="360"/>
		
			<rect x="86.34" y="0" style="clip-path:url(#SVGID_00000043422156681840489090000008803629485426203540_);fill:#FFFFFF;" width="1.16" height="360"/>
		
			<rect x="87.5" y="0" style="clip-path:url(#SVGID_00000043422156681840489090000008803629485426203540_);fill:#FFFFFF;" width="1.16" height="360"/>
		
			<rect x="88.66" y="0" style="clip-path:url(#SVGID_00000043422156681840489090000008803629485426203540_);fill:#FFFFFF;" width="1.16" height="360"/>
		
			<rect x="89.82" y="0" style="clip-path:url(#SVGID_00000043422156681840489090000008803629485426203540_);fill:#FFFFFF;" width="1.16" height="360"/>
		
			<rect x="90.98" y="0" style="clip-path:url(#SVGID_00000043422156681840489090000008803629485426203540_);fill:#FFFFFF;" width="1.16" height="360"/>
		
			<rect x="92.13" y="0" style="clip-path:url(#SVGID_00000043422156681840489090000008803629485426203540_);fill:#FFFFFF;" width="1.16" height="360"/>
		
			<rect x="93.29" y="0" style="clip-path:url(#SVGID_00000043422156681840489090000008803629485426203540_);fill:#FFFFFF;" width="1.16" height="360"/>
		
			<rect x="94.45" y="0" style="clip-path:url(#SVGID_00000043422156681840489090000008803629485426203540_);fill:#FFFFFF;" width="1.16" height="360"/>
		
			<rect x="95.61" y="0" style="clip-path:url(#SVGID_00000043422156681840489090000008803629485426203540_);fill:#FFFFFF;" width="1.16" height="360"/>
		
			<rect x="96.77" y="0" style="clip-path:url(#SVGID_00000043422156681840489090000008803629485426203540_);fill:#FFFFFF;" width="1.16" height="360"/>
		
			<rect x="97.93" y="0" style="clip-path:url(#SVGID_00000043422156681840489090000008803629485426203540_);fill:#FFFFFF;" width="1.16" height="360"/>
		
			<rect x="99.08" y="0" style="clip-path:url(#SVGID_00000043422156681840489090000008803629485426203540_);fill:#FFFFFF;" width="1.16" height="360"/>
		
			<rect x="100.24" y="0" style="clip-path:url(#SVGID_00000043422156681840489090000008803629485426203540_);fill:#FFFFFF;" width="1.16" height="360"/>
		
			<rect x="101.4" y="0" style="clip-path:url(#SVGID_00000043422156681840489090000008803629485426203540_);fill:#FFFFFF;" width="1.16" height="360"/>
		
			<rect x="102.56" y="0" style="clip-path:url(#SVGID_00000043422156681840489090000008803629485426203540_);fill:#FFFFFF;" width="1.16" height="360"/>
		
			<rect x="103.72" y="0" style="clip-path:url(#SVGID_00000043422156681840489090000008803629485426203540_);fill:#FFFFFF;" width="1.16" height="360"/>
		
			<rect x="104.87" y="0" style="clip-path:url(#SVGID_00000043422156681840489090000008803629485426203540_);fill:#FFFFFF;" width="1.16" height="360"/>
		
			<rect x="106.03" y="0" style="clip-path:url(#SVGID_00000043422156681840489090000008803629485426203540_);fill:#FFFFFF;" width="1.16" height="360"/>
		
			<rect x="107.19" y="0" style="clip-path:url(#SVGID_00000043422156681840489090000008803629485426203540_);fill:#FFFFFF;" width="1.16" height="360"/>
		
			<rect x="108.35" y="0" style="clip-path:url(#SVGID_00000043422156681840489090000008803629485426203540_);fill:#FFFFFF;" width="1.16" height="360"/>
		
			<rect x="109.51" y="0" style="clip-path:url(#SVGID_00000043422156681840489090000008803629485426203540_);fill:#FFFFFF;" width="1.16" height="360"/>
		
			<rect x="110.67" y="0" style="clip-path:url(#SVGID_00000043422156681840489090000008803629485426203540_);fill:#FFFFFF;" width="1.16" height="360"/>
		
			<rect x="111.82" y="0" style="clip-path:url(#SVGID_00000043422156681840489090000008803629485426203540_);fill:#FFFFFF;" width="1.16" height="360"/>
		
			<rect x="112.98" y="0" style="clip-path:url(#SVGID_00000043422156681840489090000008803629485426203540_);fill:#FFFFFF;" width="1.16" height="360"/>
		
			<rect x="114.14" y="0" style="clip-path:url(#SVGID_00000043422156681840489090000008803629485426203540_);fill:#FFFFFF;" width="1.16" height="360"/>
		
			<rect x="115.3" y="0" style="clip-path:url(#SVGID_00000043422156681840489090000008803629485426203540_);fill:#FFFFFF;" width="1.16" height="360"/>
		
			<rect x="116.46" y="0" style="clip-path:url(#SVGID_00000043422156681840489090000008803629485426203540_);fill:#FFFFFF;" width="1.16" height="360"/>
		
			<rect x="117.61" y="0" style="clip-path:url(#SVGID_00000043422156681840489090000008803629485426203540_);fill:#FFFFFF;" width="1.16" height="360"/>
		
			<rect x="118.77" y="0" style="clip-path:url(#SVGID_00000043422156681840489090000008803629485426203540_);fill:#FFFFFF;" width="1.16" height="360"/>
		
			<rect x="119.93" y="0" style="clip-path:url(#SVGID_00000043422156681840489090000008803629485426203540_);fill:#FFFFFF;" width="1.16" height="360"/>
		
			<rect x="121.09" y="0" style="clip-path:url(#SVGID_00000043422156681840489090000008803629485426203540_);fill:#FFFFFF;" width="1.16" height="360"/>
		
			<rect x="122.25" y="0" style="clip-path:url(#SVGID_00000043422156681840489090000008803629485426203540_);fill:#FFFFFF;" width="1.16" height="360"/>
		
			<rect x="123.41" y="0" style="clip-path:url(#SVGID_00000043422156681840489090000008803629485426203540_);fill:#FFFFFF;" width="1.16" height="360"/>
		
			<rect x="124.56" y="0" style="clip-path:url(#SVGID_00000043422156681840489090000008803629485426203540_);fill:#FFFFFF;" width="1.16" height="360"/>
		
			<rect x="125.72" y="0" style="clip-path:url(#SVGID_00000043422156681840489090000008803629485426203540_);fill:#FFFFFF;" width="1.16" height="360"/>
		
			<rect x="126.88" y="0" style="clip-path:url(#SVGID_00000043422156681840489090000008803629485426203540_);fill:#FFFFFF;" width="1.16" height="360"/>
		
			<rect x="128.04" y="0" style="clip-path:url(#SVGID_00000043422156681840489090000008803629485426203540_);fill:#FFFFFF;" width="1.16" height="360"/>
		
			<rect x="129.2" y="0" style="clip-path:url(#SVGID_00000043422156681840489090000008803629485426203540_);fill:#FFFFFF;" width="1.16" height="360"/>
		
			<rect x="130.36" y="0" style="clip-path:url(#SVGID_00000043422156681840489090000008803629485426203540_);fill:#FFFFFF;" width="1.16" height="360"/>
		
			<rect x="131.51" y="0" style="clip-path:url(#SVGID_00000043422156681840489090000008803629485426203540_);fill:#FFFFFF;" width="1.16" height="360"/>
		
			<rect x="132.67" y="0" style="clip-path:url(#SVGID_00000043422156681840489090000008803629485426203540_);fill:#FFFFFF;" width="1.16" height="360"/>
		
			<rect x="133.83" y="0" style="clip-path:url(#SVGID_00000043422156681840489090000008803629485426203540_);fill:#FFFFFF;" width="1.16" height="360"/>
		
			<rect x="134.99" y="0" style="clip-path:url(#SVGID_00000043422156681840489090000008803629485426203540_);fill:#FFFFFF;" width="1.16" height="360"/>
		
			<rect x="136.15" y="0" style="clip-path:url(#SVGID_00000043422156681840489090000008803629485426203540_);fill:#FFFFFF;" width="1.16" height="360"/>
		
			<rect x="137.3" y="0" style="clip-path:url(#SVGID_00000043422156681840489090000008803629485426203540_);fill:#FFFFFF;" width="1.16" height="360"/>
		
			<rect x="138.46" y="0" style="clip-path:url(#SVGID_00000043422156681840489090000008803629485426203540_);fill:#FFFFFF;" width="1.16" height="360"/>
		
			<rect x="139.62" y="0" style="clip-path:url(#SVGID_00000043422156681840489090000008803629485426203540_);fill:#FFFFFF;" width="1.16" height="360"/>
		
			<rect x="140.78" y="0" style="clip-path:url(#SVGID_00000043422156681840489090000008803629485426203540_);fill:#FFFFFF;" width="1.16" height="360"/>
		
			<rect x="141.94" y="0" style="clip-path:url(#SVGID_00000043422156681840489090000008803629485426203540_);fill:#FFFFFF;" width="1.16" height="360"/>
		
			<rect x="143.1" y="0" style="clip-path:url(#SVGID_00000043422156681840489090000008803629485426203540_);fill:#FFFFFF;" width="1.16" height="360"/>
		
			<rect x="144.25" y="0" style="clip-path:url(#SVGID_00000043422156681840489090000008803629485426203540_);fill:#FFFFFF;" width="1.16" height="360"/>
		
			<rect x="145.41" y="0" style="clip-path:url(#SVGID_00000043422156681840489090000008803629485426203540_);fill:#FFFFFF;" width="1.16" height="360"/>
		
			<rect x="146.57" y="0" style="clip-path:url(#SVGID_00000043422156681840489090000008803629485426203540_);fill:#FFFFFF;" width="1.16" height="360"/>
		
			<rect x="147.73" y="0" style="clip-path:url(#SVGID_00000043422156681840489090000008803629485426203540_);fill:#FFFFFF;" width="1.16" height="360"/>
		
			<rect x="148.89" y="0" style="clip-path:url(#SVGID_00000043422156681840489090000008803629485426203540_);fill:#FFFFFF;" width="1.16" height="360"/>
		
			<rect x="150.04" y="0" style="clip-path:url(#SVGID_00000043422156681840489090000008803629485426203540_);fill:#FFFFFF;" width="1.16" height="360"/>
		
			<rect x="151.2" y="0" style="clip-path:url(#SVGID_00000043422156681840489090000008803629485426203540_);fill:#FFFFFF;" width="1.16" height="360"/>
		
			<rect x="152.36" y="0" style="clip-path:url(#SVGID_00000043422156681840489090000008803629485426203540_);fill:#FFFFFF;" width="1.16" height="360"/>
		
			<rect x="153.52" y="0" style="clip-path:url(#SVGID_00000043422156681840489090000008803629485426203540_);fill:#FFFFFF;" width="1.16" height="360"/>
		
			<rect x="154.68" y="0" style="clip-path:url(#SVGID_00000043422156681840489090000008803629485426203540_);fill:#FFFFFF;" width="1.16" height="360"/>
		
			<rect x="155.84" y="0" style="clip-path:url(#SVGID_00000043422156681840489090000008803629485426203540_);fill:#FFFFFF;" width="1.16" height="360"/>
		
			<rect x="156.99" y="0" style="clip-path:url(#SVGID_00000043422156681840489090000008803629485426203540_);fill:#FFFFFF;" width="1.16" height="360"/>
		
			<rect x="158.15" y="0" style="clip-path:url(#SVGID_00000043422156681840489090000008803629485426203540_);fill:#FFFFFF;" width="1.16" height="360"/>
		
			<rect x="159.31" y="0" style="clip-path:url(#SVGID_00000043422156681840489090000008803629485426203540_);fill:#FFFFFF;" width="1.16" height="360"/>
		
			<rect x="160.47" y="0" style="clip-path:url(#SVGID_00000043422156681840489090000008803629485426203540_);fill:#FFFFFF;" width="1.16" height="360"/>
		
			<rect x="161.63" y="0" style="clip-path:url(#SVGID_00000043422156681840489090000008803629485426203540_);fill:#FFFFFF;" width="1.16" height="360"/>
		
			<rect x="162.78" y="0" style="clip-path:url(#SVGID_00000043422156681840489090000008803629485426203540_);fill:#FFFFFF;" width="1.16" height="360"/>
		
			<rect x="163.94" y="0" style="clip-path:url(#SVGID_00000043422156681840489090000008803629485426203540_);fill:#FFFFFF;" width="1.16" height="360"/>
		
			<rect x="165.1" y="0" style="clip-path:url(#SVGID_00000043422156681840489090000008803629485426203540_);fill:#FFFFFF;" width="1.16" height="360"/>
		
			<rect x="166.26" y="0" style="clip-path:url(#SVGID_00000043422156681840489090000008803629485426203540_);fill:#FFFFFF;" width="1.16" height="360"/>
		
			<rect x="167.42" y="0" style="clip-path:url(#SVGID_00000043422156681840489090000008803629485426203540_);fill:#FFFFFF;" width="1.16" height="360"/>
		
			<rect x="168.58" y="0" style="clip-path:url(#SVGID_00000043422156681840489090000008803629485426203540_);fill:#FFFFFF;" width="38.43" height="360"/>
	</g>
</g>
</svg>
